<?xml version="1.0" standalone="no"?>
<!DOCTYPE svg PUBLIC "-//W3C//DTD SVG 20010904//EN"
 "http://www.w3.org/TR/2001/REC-SVG-20010904/DTD/svg10.dtd">
<svg version="1.0" xmlns="http://www.w3.org/2000/svg"
 width="335.000000pt" height="130.000000pt" viewBox="0 0 335.000000 130.000000"
 preserveAspectRatio="xMidYMid meet">

<g transform="translate(0.000000,130.000000) scale(0.100000,-0.100000)"
fill="#000000" stroke="none">
<path d="M0 650 l0 -650 1675 0 1675 0 0 650 0 650 -1675 0 -1675 0 0 -650z
m1958 252 l3 -103 32 20 c49 30 105 35 147 14 54 -28 60 -50 60 -221 0 -147 1
-155 23 -173 22 -18 21 -18 -85 -19 -101 0 -136 10 -88 25 19 6 20 15 20 169
0 113 -4 166 -12 174 -17 17 -58 15 -80 -5 -16 -14 -18 -34 -18 -170 0 -148 1
-156 23 -174 22 -18 21 -18 -88 -18 -109 0 -110 0 -87 18 22 19 22 22 22 279
0 222 -2 261 -15 266 -8 3 -15 10 -15 16 0 7 27 10 78 8 l77 -3 3 -103z
m-1228 58 c0 -5 -11 -12 -25 -16 l-25 -6 0 -232 c-1 -248 -7 -303 -37 -345
-42 -57 -122 -91 -179 -77 -39 10 -74 50 -74 85 0 31 3 33 68 46 32 7 34 6 26
-16 -12 -34 -11 -102 1 -106 6 -2 19 2 28 10 28 19 37 116 37 390 0 197 -3
247 -13 247 -7 0 -22 7 -33 15 -17 13 -6 14 104 15 73 0 122 -4 122 -10z m296
-127 c42 -21 70 -55 79 -93 6 -24 -1 -29 -107 -84 -62 -33 -114 -60 -116 -62
-6 -4 26 -60 42 -73 23 -19 82 -16 121 8 40 23 45 12 15 -33 -46 -71 -136 -94
-216 -56 -122 60 -146 270 -41 368 57 53 150 63 223 25z m381 0 c21 -11 48
-35 61 -53 12 -18 22 -26 22 -18 0 38 91 88 160 88 52 0 130 -19 136 -34 5
-14 -30 -107 -41 -109 -5 -1 -15 19 -24 44 -9 26 -22 54 -30 63 -17 20 -67 21
-75 1 -10 -27 13 -64 93 -149 48 -51 82 -96 86 -115 14 -67 -59 -130 -152
-131 -52 0 -141 18 -149 31 -7 12 25 109 36 109 4 0 15 -19 25 -42 22 -58 43
-78 76 -78 65 0 49 50 -49 154 -42 45 -82 90 -87 100 -9 16 -19 13 -120 -40
-61 -31 -111 -58 -113 -60 -6 -4 26 -60 42 -73 23 -19 82 -16 121 8 40 23 45
12 15 -33 -46 -71 -136 -94 -216 -56 -122 60 -146 270 -41 368 57 53 149 63
224 25z m1064 0 c61 -24 69 -52 69 -232 0 -129 2 -150 16 -155 9 -4 25 -4 35
-1 18 6 19 20 19 191 0 155 -2 186 -15 190 -37 15 -9 25 63 22 70 -3 77 -5 80
-25 3 -21 3 -21 35 -3 70 40 169 30 194 -20 9 -17 13 -76 13 -183 0 -152 1
-160 23 -178 22 -18 21 -18 -88 -18 -109 0 -110 0 -87 18 21 18 22 26 22 178
0 110 -4 163 -12 171 -17 17 -58 15 -80 -5 -16 -14 -18 -34 -18 -170 0 -148 1
-156 23 -174 22 -18 19 -18 -165 -19 -186 0 -188 0 -188 22 0 21 0 21 -26 -3
-60 -56 -154 -14 -154 70 0 53 30 87 109 124 l66 32 3 71 c3 82 -13 113 -49
94 -27 -15 -32 -49 -14 -99 8 -24 15 -45 15 -47 0 -8 -42 -4 -86 7 -51 13 -57
33 -24 87 39 63 139 88 221 55z"/>
<path d="M941 824 c-33 -24 -61 -91 -60 -149 l0 -50 53 57 c29 32 61 74 72 93
19 36 19 37 0 51 -25 18 -36 18 -65 -2z"/>
<path d="M1321 824 c-33 -24 -61 -91 -60 -149 l0 -50 53 57 c29 32 61 74 72
93 19 36 19 37 0 51 -25 18 -36 18 -65 -2z"/>
<path d="M2388 633 c-27 -31 -38 -61 -38 -100 0 -42 14 -63 42 -63 16 0 18 10
18 90 0 50 -2 90 -3 90 -2 0 -11 -8 -19 -17z"/>
</g>
</svg>
