<?xml version="1.0" standalone="no"?>
<!DOCTYPE svg PUBLIC "-//W3C//DTD SVG 20010904//EN"
 "http://www.w3.org/TR/2001/REC-SVG-20010904/DTD/svg10.dtd">
<svg version="1.0" xmlns="http://www.w3.org/2000/svg"
 width="500.000000pt" height="500.000000pt" viewBox="0 0 500.000000 500.000000"
 preserveAspectRatio="xMidYMid meet">

<g transform="translate(0.000000,500.000000) scale(0.100000,-0.100000)"
fill="#000000" stroke="none">
<path d="M0 2500 l0 -2500 2500 0 2500 0 0 2500 0 2500 -2500 0 -2500 0 0
-2500z m2229 1086 c78 -41 66 -181 -40 -451 -71 -183 -228 -490 -342 -668 -27
-43 -47 -80 -45 -82 3 -3 132 -1 289 5 156 5 299 10 318 10 28 0 31 2 22 14
-19 22 2 52 60 87 27 17 49 36 49 42 0 6 -10 1 -22 -10 -29 -26 -74 -49 -115
-58 -38 -8 -99 9 -111 31 -7 13 -14 12 -46 -7 -49 -29 -136 -31 -165 -5 -56
51 22 156 117 156 39 0 57 -21 42 -49 -15 -29 -42 -41 -89 -41 -37 0 -41 -3
-41 -25 0 -20 6 -25 35 -31 46 -8 112 24 154 76 40 50 82 72 129 68 82 -7 32
-88 -54 -88 -37 0 -44 -3 -44 -20 0 -54 99 -47 165 12 31 27 35 34 29 65 -8
44 16 73 61 73 34 0 61 -22 50 -39 -4 -7 -14 -6 -29 4 -21 14 -25 14 -36 0
-13 -16 -8 -51 12 -77 12 -15 17 -15 67 5 l54 21 63 130 c34 72 75 161 92 199
19 41 37 67 46 67 9 0 16 -5 16 -11 0 -16 -66 -172 -111 -261 -22 -44 -38 -82
-35 -85 3 -3 18 4 34 16 17 12 44 21 60 21 37 0 46 -21 36 -85 -5 -40 -4 -45
13 -45 20 0 49 18 91 57 34 31 95 63 121 63 23 0 47 -35 31 -45 -5 -3 -21 -3
-35 1 -30 7 -80 -27 -108 -75 -27 -45 0 -41 59 10 57 50 80 49 76 -4 -3 -32
-1 -37 18 -37 25 0 67 40 93 89 19 35 43 37 40 2 l-3 -21 40 20 c56 29 90 27
90 -5 0 -13 -5 -36 -12 -50 -6 -14 -8 -28 -5 -32 4 -3 34 8 68 26 66 35 84 35
48 2 -29 -27 -9 -27 47 -2 98 45 113 113 35 167 -29 21 -31 24 -11 19 37 -11
89 -44 100 -65 36 -67 -44 -139 -173 -156 -29 -4 -69 -13 -90 -20 -28 -10 -44
-11 -58 -4 -22 12 -22 14 -9 59 5 19 8 37 5 39 -5 6 -94 -59 -119 -87 -18 -20
-56 -29 -56 -13 0 4 -18 6 -41 4 -34 -4 -41 -1 -46 17 -7 26 -4 26 -50 -4 -46
-32 -93 -31 -108 2 -7 17 -15 21 -30 16 -11 -4 -31 -7 -45 -7 -25 -1 -25 0
-22 67 2 54 0 67 -10 61 -38 -22 -88 -70 -122 -114 -22 -29 -46 -50 -57 -50
-24 0 -24 2 1 50 23 45 23 46 -26 25 -35 -14 -35 -15 -28 -60 7 -49 -4 -71
-41 -85 -31 -12 41 -18 276 -25 245 -6 590 -32 604 -46 12 -12 -52 -12 -230 1
-259 19 -747 28 -1090 20 -187 -4 -347 -11 -356 -15 -9 -3 -58 -56 -110 -117
-149 -175 -285 -281 -412 -320 -163 -49 -372 11 -407 117 -13 41 0 78 43 123
95 99 315 169 652 206 77 9 150 18 161 21 25 6 106 126 215 320 154 275 270
556 300 729 26 151 -52 184 -241 102 -186 -80 -402 -228 -550 -376 -110 -110
-161 -183 -182 -262 -11 -44 -10 -50 8 -75 42 -56 91 -65 279 -49 126 11 118
-6 -11 -22 -165 -21 -238 -13 -293 34 -41 34 -47 76 -22 147 51 147 242 336
506 502 232 146 426 206 514 161z m1289 -823 c-7 -9 -14 -9 -27 -1 -17 10 -17
12 -2 27 14 15 17 15 28 1 8 -10 8 -19 1 -27z"/>
<path d="M2152 2608 c-17 -17 -15 -28 6 -28 19 0 42 18 42 32 0 12 -35 9 -48
-4z"/>
<path d="M2371 2606 c-8 -10 -9 -16 -1 -21 16 -10 50 4 50 21 0 18 -34 18 -49
0z"/>
<path d="M2507 2475 c-45 -31 -47 -45 -6 -45 44 0 69 17 69 45 0 32 -16 31
-63 0z"/>
<path d="M1505 2319 c-282 -38 -489 -107 -567 -190 -68 -71 -45 -134 68 -186
125 -57 284 -8 454 140 85 74 220 225 220 246 0 13 -2 13 -175 -10z"/>
</g>
</svg>
